<mxfile host="app.diagrams.net" agent="Mozilla/5.0 (X11; Linux x86_64; rv:129.0) Gecko/20100101 Firefox/129.0" version="24.7.6">
  <diagram id="C5RBs43oDa-KdzZeNtuy" name="Page-1">
    <mxGraphModel dx="2326" dy="1973" grid="1" gridSize="10" guides="1" tooltips="1" connect="1" arrows="1" fold="1" page="1" pageScale="1" pageWidth="827" pageHeight="1169" math="0" shadow="0">
      <root>
        <mxCell id="WIyWlLk6GJQsqaUBKTNV-0" />
        <mxCell id="WIyWlLk6GJQsqaUBKTNV-1" parent="WIyWlLk6GJQsqaUBKTNV-0" />
        <mxCell id="vo-f1dlZQaYMj4yJqVJ2-23" value="" style="rounded=1;whiteSpace=wrap;html=1;" vertex="1" parent="WIyWlLk6GJQsqaUBKTNV-1">
          <mxGeometry x="-160" y="-990" width="310" height="690" as="geometry" />
        </mxCell>
        <mxCell id="vo-f1dlZQaYMj4yJqVJ2-4" value="" style="rounded=1;whiteSpace=wrap;html=1;" vertex="1" parent="WIyWlLk6GJQsqaUBKTNV-1">
          <mxGeometry x="-360" y="-40" width="510" height="800" as="geometry" />
        </mxCell>
        <mxCell id="Zsn3IsoFpJ0N-b4485kA-24" value="" style="rounded=1;whiteSpace=wrap;html=1;align=left;" parent="WIyWlLk6GJQsqaUBKTNV-1" vertex="1">
          <mxGeometry x="351.5" y="860" width="560" height="170" as="geometry" />
        </mxCell>
        <mxCell id="Zsn3IsoFpJ0N-b4485kA-4" value="GTFS Data Real Time" style="swimlane;whiteSpace=wrap;html=1;startSize=23;" parent="WIyWlLk6GJQsqaUBKTNV-1" vertex="1">
          <mxGeometry x="850" y="90" width="200" height="170" as="geometry">
            <mxRectangle x="40" y="40" width="160" height="30" as="alternateBounds" />
          </mxGeometry>
        </mxCell>
        <mxCell id="Zsn3IsoFpJ0N-b4485kA-8" value="&lt;div&gt;- Real time trains:&lt;/div&gt;&lt;div&gt;- Stations&lt;/div&gt;&lt;div&gt;- Stops&lt;/div&gt;&lt;div&gt;- Delays&lt;br&gt;&lt;/div&gt;" style="text;html=1;align=center;verticalAlign=middle;resizable=0;points=[];autosize=1;strokeColor=none;fillColor=none;" parent="Zsn3IsoFpJ0N-b4485kA-4" vertex="1">
          <mxGeometry x="10" y="30" width="120" height="70" as="geometry" />
        </mxCell>
        <mxCell id="Zsn3IsoFpJ0N-b4485kA-7" value="&lt;div&gt;GTFS Data daily&lt;/div&gt;" style="swimlane;whiteSpace=wrap;html=1;" parent="WIyWlLk6GJQsqaUBKTNV-1" vertex="1">
          <mxGeometry x="790" y="332.04" width="200" height="122.45" as="geometry" />
        </mxCell>
        <mxCell id="Zsn3IsoFpJ0N-b4485kA-9" value="Scheduled trains for next ___h ?" style="text;html=1;align=center;verticalAlign=middle;resizable=0;points=[];autosize=1;strokeColor=none;fillColor=none;" parent="Zsn3IsoFpJ0N-b4485kA-7" vertex="1">
          <mxGeometry y="40" width="200" height="30" as="geometry" />
        </mxCell>
        <mxCell id="Zsn3IsoFpJ0N-b4485kA-10" value="&lt;div&gt;&lt;b&gt;Datasets&lt;/b&gt;&lt;/div&gt;" style="swimlane;fontStyle=0;childLayout=stackLayout;horizontal=1;startSize=30;horizontalStack=0;resizeParent=1;resizeParentMax=0;resizeLast=0;collapsible=1;marginBottom=0;whiteSpace=wrap;html=1;" parent="WIyWlLk6GJQsqaUBKTNV-1" vertex="1">
          <mxGeometry x="920" y="880" width="200" height="120" as="geometry" />
        </mxCell>
        <mxCell id="Zsn3IsoFpJ0N-b4485kA-11" value="train_stations" style="text;strokeColor=none;fillColor=none;align=left;verticalAlign=middle;spacingLeft=4;spacingRight=4;overflow=hidden;points=[[0,0.5],[1,0.5]];portConstraint=eastwest;rotatable=0;whiteSpace=wrap;html=1;" parent="Zsn3IsoFpJ0N-b4485kA-10" vertex="1">
          <mxGeometry y="30" width="200" height="30" as="geometry" />
        </mxCell>
        <mxCell id="Zsn3IsoFpJ0N-b4485kA-12" value="reglarite-mensuelle-tgv-nationale.csv" style="text;strokeColor=none;fillColor=none;align=left;verticalAlign=middle;spacingLeft=4;spacingRight=4;overflow=hidden;points=[[0,0.5],[1,0.5]];portConstraint=eastwest;rotatable=0;whiteSpace=wrap;html=1;" parent="Zsn3IsoFpJ0N-b4485kA-10" vertex="1">
          <mxGeometry y="60" width="200" height="30" as="geometry" />
        </mxCell>
        <mxCell id="Zsn3IsoFpJ0N-b4485kA-13" value="regularite-mensuelle-tgv-aqst.csv" style="text;strokeColor=none;fillColor=none;align=left;verticalAlign=middle;spacingLeft=4;spacingRight=4;overflow=hidden;points=[[0,0.5],[1,0.5]];portConstraint=eastwest;rotatable=0;whiteSpace=wrap;html=1;" parent="Zsn3IsoFpJ0N-b4485kA-10" vertex="1">
          <mxGeometry y="90" width="200" height="30" as="geometry" />
        </mxCell>
        <mxCell id="Zsn3IsoFpJ0N-b4485kA-15" value="" style="image;sketch=0;aspect=fixed;html=1;points=[];align=center;fontSize=12;image=img/lib/mscae/Data_Lake_Storage.svg;" parent="WIyWlLk6GJQsqaUBKTNV-1" vertex="1">
          <mxGeometry x="1160" y="860" width="206.52" height="190" as="geometry" />
        </mxCell>
        <mxCell id="Zsn3IsoFpJ0N-b4485kA-17" value="" style="image;aspect=fixed;html=1;points=[];align=center;fontSize=12;image=img/lib/azure2/integration/SQL_Data_Warehouses.svg;" parent="WIyWlLk6GJQsqaUBKTNV-1" vertex="1">
          <mxGeometry x="407.5" y="810" width="64" height="65" as="geometry" />
        </mxCell>
        <mxCell id="Zsn3IsoFpJ0N-b4485kA-21" value="ML Model delay predict (classification)" style="rounded=1;whiteSpace=wrap;html=1;" parent="WIyWlLk6GJQsqaUBKTNV-1" vertex="1">
          <mxGeometry x="461.5" y="910" width="120" height="60" as="geometry" />
        </mxCell>
        <mxCell id="Zsn3IsoFpJ0N-b4485kA-22" value="ML Model delay predict (regression)" style="rounded=1;whiteSpace=wrap;html=1;" parent="WIyWlLk6GJQsqaUBKTNV-1" vertex="1">
          <mxGeometry x="681.5" y="910" width="120" height="60" as="geometry" />
        </mxCell>
        <mxCell id="vo-f1dlZQaYMj4yJqVJ2-0" value="" style="sketch=0;outlineConnect=0;fontColor=#232F3E;gradientColor=none;fillColor=#7AA116;strokeColor=none;dashed=0;verticalLabelPosition=bottom;verticalAlign=top;align=center;html=1;fontSize=12;fontStyle=0;aspect=fixed;pointerEvents=1;shape=mxgraph.aws4.iot_analytics_pipeline;" vertex="1" parent="WIyWlLk6GJQsqaUBKTNV-1">
          <mxGeometry x="-120.00000000000001" y="79.99999999999999" width="366.86" height="197.55" as="geometry" />
        </mxCell>
        <mxCell id="vo-f1dlZQaYMj4yJqVJ2-3" value="" style="shape=image;verticalLabelPosition=bottom;labelBackgroundColor=default;verticalAlign=top;aspect=fixed;imageAspect=0;image=https://mintlify.s3-us-west-1.amazonaws.com/mage/logo/light.svg;" vertex="1" parent="WIyWlLk6GJQsqaUBKTNV-1">
          <mxGeometry x="-330" y="-20" width="463" height="122.6" as="geometry" />
        </mxCell>
        <mxCell id="vo-f1dlZQaYMj4yJqVJ2-12" style="edgeStyle=orthogonalEdgeStyle;rounded=0;orthogonalLoop=1;jettySize=auto;html=1;strokeColor=#0A33FF;sketch=1;curveFitting=1;jiggle=2;shadow=1;strokeWidth=3;" edge="1" parent="WIyWlLk6GJQsqaUBKTNV-1" source="vo-f1dlZQaYMj4yJqVJ2-5">
          <mxGeometry relative="1" as="geometry">
            <mxPoint x="560" y="178.8850000000001" as="targetPoint" />
          </mxGeometry>
        </mxCell>
        <mxCell id="vo-f1dlZQaYMj4yJqVJ2-5" value="" style="image;aspect=fixed;html=1;points=[];align=center;fontSize=12;image=img/lib/azure2/databases/Azure_Database_PostgreSQL_Server.svg;" vertex="1" parent="WIyWlLk6GJQsqaUBKTNV-1">
          <mxGeometry x="259.5" y="80.22" width="148" height="197.33" as="geometry" />
        </mxCell>
        <mxCell id="vo-f1dlZQaYMj4yJqVJ2-6" value="&lt;div style=&quot;font-size: 20px;&quot;&gt;&lt;font style=&quot;font-size: 20px;&quot; color=&quot;#ff0000&quot;&gt;&lt;b&gt;GTFS Real Time&lt;/b&gt;&lt;/font&gt;&lt;font style=&quot;font-size: 20px;&quot;&gt;&lt;br&gt;&lt;/font&gt;&lt;/div&gt;&lt;div style=&quot;font-size: 20px;&quot;&gt;&lt;font style=&quot;font-size: 20px;&quot;&gt;&lt;i&gt;- Create&lt;/i&gt;&lt;/font&gt;&lt;/div&gt;&lt;div style=&quot;font-size: 20px;&quot;&gt;&lt;font style=&quot;font-size: 20px;&quot;&gt;&lt;font style=&quot;font-size: 20px;&quot;&gt;&lt;i&gt;- Update&lt;/i&gt;&lt;/font&gt;&lt;font style=&quot;font-size: 20px;&quot;&gt;&lt;br&gt;&lt;/font&gt;&lt;/font&gt;&lt;/div&gt;" style="text;html=1;align=center;verticalAlign=middle;resizable=0;points=[];autosize=1;strokeColor=none;fillColor=none;" vertex="1" parent="WIyWlLk6GJQsqaUBKTNV-1">
          <mxGeometry x="-30" y="150" width="180" height="90" as="geometry" />
        </mxCell>
        <mxCell id="vo-f1dlZQaYMj4yJqVJ2-7" value="&lt;font style=&quot;font-size: 17px;&quot; color=&quot;#ff0000&quot;&gt;&lt;br&gt;&lt;/font&gt;" style="text;html=1;align=center;verticalAlign=middle;resizable=0;points=[];autosize=1;strokeColor=none;fillColor=none;" vertex="1" parent="WIyWlLk6GJQsqaUBKTNV-1">
          <mxGeometry x="326.86" y="277.55" width="20" height="30" as="geometry" />
        </mxCell>
        <mxCell id="vo-f1dlZQaYMj4yJqVJ2-8" value="&lt;font style=&quot;font-size: 17px;&quot; color=&quot;#ff0000&quot;&gt;&lt;b&gt;GTFS RT Table&lt;/b&gt;&lt;/font&gt;" style="swimlane;fontStyle=0;childLayout=stackLayout;horizontal=1;startSize=30;horizontalStack=0;resizeParent=1;resizeParentMax=0;resizeLast=0;collapsible=1;marginBottom=0;whiteSpace=wrap;html=1;" vertex="1" parent="WIyWlLk6GJQsqaUBKTNV-1">
          <mxGeometry x="561.5" y="120" width="198.5" height="120" as="geometry" />
        </mxCell>
        <mxCell id="vo-f1dlZQaYMj4yJqVJ2-9" value="Item 1" style="text;strokeColor=none;fillColor=none;align=left;verticalAlign=middle;spacingLeft=4;spacingRight=4;overflow=hidden;points=[[0,0.5],[1,0.5]];portConstraint=eastwest;rotatable=0;whiteSpace=wrap;html=1;" vertex="1" parent="vo-f1dlZQaYMj4yJqVJ2-8">
          <mxGeometry y="30" width="198.5" height="30" as="geometry" />
        </mxCell>
        <mxCell id="vo-f1dlZQaYMj4yJqVJ2-10" value="Item 2" style="text;strokeColor=none;fillColor=none;align=left;verticalAlign=middle;spacingLeft=4;spacingRight=4;overflow=hidden;points=[[0,0.5],[1,0.5]];portConstraint=eastwest;rotatable=0;whiteSpace=wrap;html=1;" vertex="1" parent="vo-f1dlZQaYMj4yJqVJ2-8">
          <mxGeometry y="60" width="198.5" height="30" as="geometry" />
        </mxCell>
        <mxCell id="vo-f1dlZQaYMj4yJqVJ2-11" value="Item 3" style="text;strokeColor=none;fillColor=none;align=left;verticalAlign=middle;spacingLeft=4;spacingRight=4;overflow=hidden;points=[[0,0.5],[1,0.5]];portConstraint=eastwest;rotatable=0;whiteSpace=wrap;html=1;" vertex="1" parent="vo-f1dlZQaYMj4yJqVJ2-8">
          <mxGeometry y="90" width="198.5" height="30" as="geometry" />
        </mxCell>
        <mxCell id="vo-f1dlZQaYMj4yJqVJ2-13" value="" style="sketch=0;outlineConnect=0;fontColor=#232F3E;gradientColor=none;fillColor=#7AA116;strokeColor=none;dashed=0;verticalLabelPosition=bottom;verticalAlign=top;align=center;html=1;fontSize=12;fontStyle=0;aspect=fixed;pointerEvents=1;shape=mxgraph.aws4.iot_analytics_pipeline;" vertex="1" parent="WIyWlLk6GJQsqaUBKTNV-1">
          <mxGeometry x="-120.00000000000001" y="290" width="366.86" height="197.55" as="geometry" />
        </mxCell>
        <mxCell id="vo-f1dlZQaYMj4yJqVJ2-14" value="&lt;div style=&quot;font-size: 20px;&quot;&gt;&lt;font style=&quot;font-size: 20px;&quot; color=&quot;#ff0000&quot;&gt;&lt;b&gt;GTFS Daily&lt;/b&gt;&lt;/font&gt;&lt;font style=&quot;font-size: 20px;&quot;&gt;&lt;br&gt;&lt;/font&gt;&lt;/div&gt;&lt;div style=&quot;font-size: 20px;&quot;&gt;&lt;font style=&quot;font-size: 20px;&quot;&gt;&lt;i&gt;- Create&lt;/i&gt;&lt;/font&gt;&lt;/div&gt;&lt;div style=&quot;font-size: 20px;&quot;&gt;&lt;font style=&quot;font-size: 20px;&quot;&gt;&lt;font style=&quot;font-size: 20px;&quot;&gt;&lt;i&gt;- Update&lt;/i&gt;&lt;/font&gt;&lt;font style=&quot;font-size: 20px;&quot;&gt;&lt;br&gt;&lt;/font&gt;&lt;/font&gt;&lt;/div&gt;" style="text;html=1;align=center;verticalAlign=middle;resizable=0;points=[];autosize=1;strokeColor=none;fillColor=none;" vertex="1" parent="WIyWlLk6GJQsqaUBKTNV-1">
          <mxGeometry x="-5" y="360" width="130" height="90" as="geometry" />
        </mxCell>
        <mxCell id="vo-f1dlZQaYMj4yJqVJ2-16" value="&lt;font style=&quot;font-size: 17px;&quot; color=&quot;#ff0000&quot;&gt;&lt;b&gt;GTFS Daily CSV&lt;br&gt;&lt;/b&gt;&lt;/font&gt;" style="swimlane;fontStyle=0;childLayout=stackLayout;horizontal=1;startSize=30;horizontalStack=0;resizeParent=1;resizeParentMax=0;resizeLast=0;collapsible=1;marginBottom=0;whiteSpace=wrap;html=1;" vertex="1" parent="WIyWlLk6GJQsqaUBKTNV-1">
          <mxGeometry x="561.5" y="328.77" width="198.5" height="120" as="geometry" />
        </mxCell>
        <mxCell id="vo-f1dlZQaYMj4yJqVJ2-17" value="Item 1" style="text;strokeColor=none;fillColor=none;align=left;verticalAlign=middle;spacingLeft=4;spacingRight=4;overflow=hidden;points=[[0,0.5],[1,0.5]];portConstraint=eastwest;rotatable=0;whiteSpace=wrap;html=1;" vertex="1" parent="vo-f1dlZQaYMj4yJqVJ2-16">
          <mxGeometry y="30" width="198.5" height="30" as="geometry" />
        </mxCell>
        <mxCell id="vo-f1dlZQaYMj4yJqVJ2-18" value="Item 2" style="text;strokeColor=none;fillColor=none;align=left;verticalAlign=middle;spacingLeft=4;spacingRight=4;overflow=hidden;points=[[0,0.5],[1,0.5]];portConstraint=eastwest;rotatable=0;whiteSpace=wrap;html=1;" vertex="1" parent="vo-f1dlZQaYMj4yJqVJ2-16">
          <mxGeometry y="60" width="198.5" height="30" as="geometry" />
        </mxCell>
        <mxCell id="vo-f1dlZQaYMj4yJqVJ2-19" value="Item 3" style="text;strokeColor=none;fillColor=none;align=left;verticalAlign=middle;spacingLeft=4;spacingRight=4;overflow=hidden;points=[[0,0.5],[1,0.5]];portConstraint=eastwest;rotatable=0;whiteSpace=wrap;html=1;" vertex="1" parent="vo-f1dlZQaYMj4yJqVJ2-16">
          <mxGeometry y="90" width="198.5" height="30" as="geometry" />
        </mxCell>
        <mxCell id="vo-f1dlZQaYMj4yJqVJ2-21" style="edgeStyle=orthogonalEdgeStyle;rounded=0;orthogonalLoop=1;jettySize=auto;html=1;entryX=0;entryY=0.5;entryDx=0;entryDy=0;sketch=1;curveFitting=1;jiggle=2;strokeColor=#0A33FF;flowAnimation=0;shadow=1;strokeWidth=3;" edge="1" parent="WIyWlLk6GJQsqaUBKTNV-1" source="vo-f1dlZQaYMj4yJqVJ2-20" target="vo-f1dlZQaYMj4yJqVJ2-18">
          <mxGeometry relative="1" as="geometry" />
        </mxCell>
        <mxCell id="vo-f1dlZQaYMj4yJqVJ2-20" value="" style="sketch=0;pointerEvents=1;shadow=0;dashed=0;html=1;strokeColor=none;fillColor=#505050;labelPosition=center;verticalLabelPosition=bottom;verticalAlign=top;outlineConnect=0;align=center;shape=mxgraph.office.users.csv_file;" vertex="1" parent="WIyWlLk6GJQsqaUBKTNV-1">
          <mxGeometry x="246.86" y="332.03999999999996" width="196.83" height="143.45" as="geometry" />
        </mxCell>
        <mxCell id="vo-f1dlZQaYMj4yJqVJ2-22" value="" style="image;sketch=0;aspect=fixed;html=1;points=[];align=center;fontSize=12;image=img/lib/mscae/Docker.svg;" vertex="1" parent="WIyWlLk6GJQsqaUBKTNV-1">
          <mxGeometry x="-141.65000000000003" y="-970" width="253.41" height="207.8" as="geometry" />
        </mxCell>
        <mxCell id="vo-f1dlZQaYMj4yJqVJ2-25" style="edgeStyle=orthogonalEdgeStyle;rounded=0;orthogonalLoop=1;jettySize=auto;html=1;strokeColor=#00CC00;sketch=1;curveFitting=1;jiggle=2;shadow=1;strokeWidth=3;" edge="1" parent="WIyWlLk6GJQsqaUBKTNV-1" source="vo-f1dlZQaYMj4yJqVJ2-24">
          <mxGeometry relative="1" as="geometry">
            <mxPoint x="320" y="80" as="targetPoint" />
          </mxGeometry>
        </mxCell>
        <mxCell id="vo-f1dlZQaYMj4yJqVJ2-24" value="" style="image;aspect=fixed;html=1;points=[];align=center;fontSize=12;image=img/lib/azure2/databases/Azure_Database_PostgreSQL_Server_Group.svg;" vertex="1" parent="WIyWlLk6GJQsqaUBKTNV-1">
          <mxGeometry x="-80.88" y="-731" width="151.76" height="172" as="geometry" />
        </mxCell>
        <mxCell id="vo-f1dlZQaYMj4yJqVJ2-27" value="" style="sketch=0;outlineConnect=0;fontColor=#232F3E;gradientColor=none;fillColor=#7AA116;strokeColor=none;dashed=0;verticalLabelPosition=bottom;verticalAlign=top;align=center;html=1;fontSize=12;fontStyle=0;aspect=fixed;pointerEvents=1;shape=mxgraph.aws4.iot_analytics_pipeline;" vertex="1" parent="WIyWlLk6GJQsqaUBKTNV-1">
          <mxGeometry x="-120.00000000000001" y="502.45" width="366.86" height="197.55" as="geometry" />
        </mxCell>
        <mxCell id="vo-f1dlZQaYMj4yJqVJ2-29" value="&lt;font size=&quot;1&quot; color=&quot;#ff0000&quot;&gt;&lt;b style=&quot;font-size: 20px;&quot;&gt;Datasets&lt;/b&gt;&lt;/font&gt;&lt;div style=&quot;font-size: 20px;&quot;&gt;&lt;font style=&quot;font-size: 20px;&quot;&gt;&lt;i&gt;- Create&lt;/i&gt;&lt;/font&gt;&lt;/div&gt;&lt;div style=&quot;font-size: 20px;&quot;&gt;&lt;font style=&quot;font-size: 20px;&quot;&gt;&lt;font style=&quot;font-size: 20px;&quot;&gt;&lt;i&gt;- Update&lt;/i&gt;&lt;/font&gt;&lt;font style=&quot;font-size: 20px;&quot;&gt;&lt;br&gt;&lt;/font&gt;&lt;/font&gt;&lt;/div&gt;" style="text;html=1;align=center;verticalAlign=middle;resizable=0;points=[];autosize=1;strokeColor=none;fillColor=none;" vertex="1" parent="WIyWlLk6GJQsqaUBKTNV-1">
          <mxGeometry x="5" y="570" width="110" height="90" as="geometry" />
        </mxCell>
        <mxCell id="vo-f1dlZQaYMj4yJqVJ2-30" value="&lt;font color=&quot;#ff0000&quot;&gt;&lt;b&gt;Datasets&lt;/b&gt;&lt;/font&gt;" style="swimlane;fontStyle=0;childLayout=stackLayout;horizontal=1;startSize=30;horizontalStack=0;resizeParent=1;resizeParentMax=0;resizeLast=0;collapsible=1;marginBottom=0;whiteSpace=wrap;html=1;" vertex="1" parent="WIyWlLk6GJQsqaUBKTNV-1">
          <mxGeometry x="561.5" y="540" width="198.5" height="120" as="geometry" />
        </mxCell>
        <mxCell id="vo-f1dlZQaYMj4yJqVJ2-31" value="Item 1" style="text;strokeColor=none;fillColor=none;align=left;verticalAlign=middle;spacingLeft=4;spacingRight=4;overflow=hidden;points=[[0,0.5],[1,0.5]];portConstraint=eastwest;rotatable=0;whiteSpace=wrap;html=1;" vertex="1" parent="vo-f1dlZQaYMj4yJqVJ2-30">
          <mxGeometry y="30" width="198.5" height="30" as="geometry" />
        </mxCell>
        <mxCell id="vo-f1dlZQaYMj4yJqVJ2-32" value="Item 2" style="text;strokeColor=none;fillColor=none;align=left;verticalAlign=middle;spacingLeft=4;spacingRight=4;overflow=hidden;points=[[0,0.5],[1,0.5]];portConstraint=eastwest;rotatable=0;whiteSpace=wrap;html=1;" vertex="1" parent="vo-f1dlZQaYMj4yJqVJ2-30">
          <mxGeometry y="60" width="198.5" height="30" as="geometry" />
        </mxCell>
        <mxCell id="vo-f1dlZQaYMj4yJqVJ2-33" value="Item 3" style="text;strokeColor=none;fillColor=none;align=left;verticalAlign=middle;spacingLeft=4;spacingRight=4;overflow=hidden;points=[[0,0.5],[1,0.5]];portConstraint=eastwest;rotatable=0;whiteSpace=wrap;html=1;" vertex="1" parent="vo-f1dlZQaYMj4yJqVJ2-30">
          <mxGeometry y="90" width="198.5" height="30" as="geometry" />
        </mxCell>
        <mxCell id="vo-f1dlZQaYMj4yJqVJ2-34" style="edgeStyle=orthogonalEdgeStyle;rounded=0;orthogonalLoop=1;jettySize=auto;html=1;entryX=0;entryY=0.5;entryDx=0;entryDy=0;sketch=1;curveFitting=1;jiggle=2;strokeColor=#0A33FF;flowAnimation=0;shadow=1;strokeWidth=3;" edge="1" parent="WIyWlLk6GJQsqaUBKTNV-1" source="vo-f1dlZQaYMj4yJqVJ2-35" target="vo-f1dlZQaYMj4yJqVJ2-32">
          <mxGeometry relative="1" as="geometry" />
        </mxCell>
        <mxCell id="vo-f1dlZQaYMj4yJqVJ2-35" value="" style="sketch=0;pointerEvents=1;shadow=0;dashed=0;html=1;strokeColor=none;fillColor=#505050;labelPosition=center;verticalLabelPosition=bottom;verticalAlign=top;outlineConnect=0;align=center;shape=mxgraph.office.users.csv_file;" vertex="1" parent="WIyWlLk6GJQsqaUBKTNV-1">
          <mxGeometry x="246.86" y="543.27" width="196.83" height="143.45" as="geometry" />
        </mxCell>
        <mxCell id="vo-f1dlZQaYMj4yJqVJ2-37" value="station_occupation" style="text;strokeColor=none;fillColor=none;align=left;verticalAlign=middle;spacingLeft=4;spacingRight=4;overflow=hidden;points=[[0,0.5],[1,0.5]];portConstraint=eastwest;rotatable=0;whiteSpace=wrap;html=1;" vertex="1" parent="WIyWlLk6GJQsqaUBKTNV-1">
          <mxGeometry x="920" y="1000" width="200" height="30" as="geometry" />
        </mxCell>
      </root>
    </mxGraphModel>
  </diagram>
</mxfile>
